<svg xmlns="http://www.w3.org/2000/svg" width="126" height="130" viewBox="0 0 126 130" fill="none"><path d="M7.81029 46H75V75.1527C75 77.2333 74.1772 79.2288 72.7126 80.7004C71.248 82.1719 69.2614 82.9991 67.1897 83H0V53.8439C0 51.7636 0.822868 49.7684 2.28758 48.2974C3.75229 46.8264 5.73887 46 7.81029 46Z" fill="#F7FAFC"></path><path fill-rule="evenodd" clip-rule="evenodd" d="M83 45H116.369C117.635 45.0011 118.888 45.2512 120.057 45.7359C121.226 46.2207 122.288 46.9306 123.183 47.8252C124.077 48.7198 124.786 49.7815 125.269 50.9498C125.753 52.118 126.001 53.3699 126 54.6339L124.268 54.6324H126V54.6339V84H92.6398C90.0832 84 87.6313 82.9859 85.8234 81.1808C84.0156 79.3756 83 76.9273 83 74.3745V45ZM86.4638 48.4587V74.3745C86.4638 76.0101 87.1145 77.5786 88.2727 78.7351C89.431 79.8916 91.0019 80.5413 92.6398 80.5413H122.536V54.6309C122.537 53.821 122.378 53.019 122.068 52.2705C121.758 51.5221 121.304 50.8419 120.731 50.2687C120.158 49.6956 119.478 49.2407 118.729 48.9302C117.98 48.6197 117.177 48.4595 116.366 48.4587H86.4638Z" fill="#F7FAFC"></path><path fill-rule="evenodd" clip-rule="evenodd" d="M43 92H116.49C119.012 92 121.431 92.9883 123.214 94.7474C124.998 96.5066 126 98.8925 126 101.38V130H52.5287C51.2782 130.002 50.0395 129.761 48.8834 129.291C47.7266 128.82 46.6754 128.129 45.79 127.257C44.9045 126.385 44.2023 125.349 43.7235 124.208C43.245 123.068 42.9991 121.847 43 120.613M43 92V93.6853ZM46.4173 95.3706L46.4173 120.614C46.4166 121.405 46.5741 122.188 46.8809 122.919C47.1876 123.649 47.6375 124.313 48.2048 124.872C48.7721 125.431 49.4456 125.874 50.1867 126.175C50.9278 126.477 51.722 126.631 52.5238 126.629L52.5275 126.629L122.583 126.629V101.38C122.583 99.7865 121.941 98.2579 120.798 97.1308C119.655 96.0038 118.106 95.3706 116.49 95.3706H46.4173ZM43 93.6853V120.612Z" fill="#F7FAFC"></path><path d="M7.89263 93H35V121.368C35 123.392 34.1685 125.333 32.6883 126.765C31.2081 128.196 29.2006 129 27.1074 129H0V100.635C-2.00662e-07 98.6108 0.831432 96.6693 2.31149 95.2375C3.79154 93.8057 5.79906 93.0009 7.89263 93Z" fill="#F7FAFC"></path><path d="M7.81207 0H125V29.1561C125 31.2364 124.177 33.2316 122.712 34.7026C121.247 36.1736 119.26 37 117.188 37H0V7.8439C0 5.76357 0.823055 3.76844 2.2881 2.29743C3.75315 0.826409 5.74018 0 7.81207 0Z" fill="#F7FAFC"></path></svg>